<svg width="37" height="37" viewBox="0 0 37 37" fill="none" xmlns="http://www.w3.org/2000/svg">
<rect y="1" width="36" height="36" rx="6" fill="#E2FFF3"/>
<mask id="mask0_222_2040" style="mask-type:luminance" maskUnits="userSpaceOnUse" x="3" y="4" width="30" height="30">
<rect x="3.59961" y="4.6001" width="28.8" height="28.8" fill="white"/>
</mask>
<g mask="url(#mask0_222_2040)">
<mask id="mask1_222_2040" style="mask-type:luminance" maskUnits="userSpaceOnUse" x="9" y="10" width="18" height="18">
<rect x="9.29297" y="10.6152" width="17.28" height="17.28" fill="white"/>
</mask>
<g mask="url(#mask1_222_2040)">
<path fill-rule="evenodd" clip-rule="evenodd" d="M20.6935 26.0952C22.9012 26.0952 24.595 25.2977 24.1139 22.0882L23.5537 17.7385C23.2571 16.1371 22.2357 15.5242 21.3393 15.5242H14.0108C13.1014 15.5242 12.1392 16.1832 11.7965 17.7385L11.2363 22.0882C10.8277 24.9353 12.4753 26.0952 14.6831 26.0952H20.6935Z" stroke="#4AB58E" stroke-width="1.5" stroke-linecap="round" stroke-linejoin="round"/>
<path d="M14.584 15.3661C14.584 13.6481 15.9767 12.2554 17.6946 12.2554C18.5219 12.2519 19.3165 12.5781 19.9027 13.1618C20.4889 13.7456 20.8185 14.5388 20.8185 15.3661" stroke="#4AB58E" stroke-width="1.5" stroke-linecap="round" stroke-linejoin="round"/>
<path d="M15.5586 18.6086H15.5915" stroke="#4AB58E" stroke-width="1.5" stroke-linecap="round" stroke-linejoin="round"/>
<path d="M19.7578 18.6086H19.7908" stroke="#4AB58E" stroke-width="1.5" stroke-linecap="round" stroke-linejoin="round"/>
</g>
</g>
</svg>
