<svg width="37" height="37" viewBox="0 0 37 37" fill="none" xmlns="http://www.w3.org/2000/svg">
<rect y="1" width="36" height="36" rx="6" fill="#FFF4DE"/>
<mask id="mask0_222_2058" style="mask-type:luminance" maskUnits="userSpaceOnUse" x="7" y="10" width="23" height="19">
<rect x="7" y="10" width="22.399" height="18.6585" fill="white"/>
</mask>
<g mask="url(#mask0_222_2058)">
<path fill-rule="evenodd" clip-rule="evenodd" d="M8.86812 15.553C8.86826 13.7741 10.5993 12.3323 12.7347 12.3323H23.6655C25.8011 12.3323 27.5309 13.7742 27.5312 15.5528M27.5312 15.5528L27.533 17.6542C27.5332 17.8089 27.4595 17.9573 27.3282 18.0667C27.1969 18.1762 27.0188 18.2377 26.833 18.2377C26.0619 18.2377 25.4424 18.7536 25.4424 19.3953C25.4424 20.0363 26.0621 20.5529 26.833 20.5529C27.2196 20.5529 27.533 20.8139 27.533 21.136V23.235C27.533 25.0139 25.803 26.456 23.6664 26.456H12.7329C10.597 26.456 8.86719 25.0138 8.86719 23.235V21.136C8.86719 20.8139 9.18057 20.5529 9.56716 20.5529C10.3369 20.5529 10.9568 20.0365 10.9568 19.3953C10.9568 18.7834 10.3741 18.3053 9.56716 18.3053C9.38147 18.3053 9.20339 18.2439 9.07211 18.1345C8.94084 18.0251 8.86712 17.8767 8.86719 17.722L8.86812 15.553C8.86812 15.5529 8.86812 15.5531 8.86812 15.553M10.2681 15.5532L10.2673 17.2088C11.4503 17.449 12.3568 18.2894 12.3568 19.3953C12.3568 20.4791 11.4702 21.3875 10.2671 21.6456V23.235C10.2671 24.3702 11.3707 25.2898 12.7329 25.2898H23.6664C25.0296 25.2898 26.1331 24.37 26.1331 23.235V21.6456C24.9293 21.3877 24.0425 20.4794 24.0425 19.3953C24.0425 18.3106 24.9292 17.4029 26.1326 17.145L26.1312 15.5536C26.1312 14.4185 25.0276 13.4984 23.6655 13.4984H12.7347C11.3723 13.4984 10.2681 14.4183 10.2681 15.5532ZM8.86812 15.553L27.5312 15.5528L8.86812 15.553Z" fill="#FFA800"/>
<path fill-rule="evenodd" clip-rule="evenodd" d="M19.0144 16.584L19.6637 17.6794L21.1179 17.8556C21.8572 17.9469 22.1585 18.705 21.6192 19.144L21.6181 19.1449L20.5672 19.9967L20.8156 21.2016C20.9435 21.8235 20.1598 22.2856 19.5006 21.9992L19.4985 21.9983L18.2003 21.4296L16.9001 21.9992C16.2408 22.2856 15.4572 21.8238 15.585 21.2019L15.8335 19.9965L14.7833 19.1447L14.7824 19.144C14.2431 18.705 14.5444 17.9469 15.2837 17.8556L15.2857 17.8553L16.7369 17.6794L17.387 16.5828L17.3878 16.5814C17.72 16.0246 18.6801 16.0182 19.0139 16.5832C19.0141 16.5834 19.0142 16.5837 19.0144 16.584ZM17.8293 18.4705C17.7274 18.6425 17.5304 18.7617 17.3025 18.7893L16.4755 18.8896L17.0741 19.3751C17.2392 19.5091 17.3146 19.7022 17.2756 19.8915L17.1338 20.5792L17.8745 20.2548C18.0785 20.1654 18.3222 20.1654 18.5261 20.2548L19.2668 20.5793L19.1251 19.8915C19.086 19.7022 19.1615 19.5089 19.3268 19.3749L19.9256 18.8896L19.0982 18.7893C18.8703 18.7617 18.6733 18.6425 18.5713 18.4705L18.2003 17.8446L17.8293 18.4705Z" fill="#FFA800"/>
</g>
</svg>
