<svg width="28" height="28" viewBox="0 0 28 28" fill="none" xmlns="http://www.w3.org/2000/svg">
<path fill-rule="evenodd" clip-rule="evenodd" d="M8.22391 7.79889L3.66154 13.1223C3.44366 13.3708 3.3322 13.6846 3.33203 14C3.33192 14.2158 3.38392 14.4324 3.48959 14.6294C3.53656 14.7172 3.59393 14.8006 3.66154 14.8777L8.22391 20.2011C8.70311 20.7602 9.54484 20.825 10.104 20.3458C10.6631 19.8666 10.7279 19.0249 10.2487 18.4657L7.56414 15.3334L17.8903 15.3334C18.6267 15.3334 19.2237 14.7364 19.2237 14.0001C19.2237 13.2637 18.6267 12.6667 17.8903 12.6667L7.56399 12.6667L10.2487 9.53423C10.7279 8.9751 10.6631 8.13337 10.104 7.65417C9.54484 7.17497 8.70311 7.23977 8.22391 7.79889ZM16.6654 22.0001C15.929 22.0001 15.332 21.4031 15.332 20.6667V18.6667C15.332 17.9304 14.7351 17.3334 13.9987 17.3334C13.2623 17.3334 12.6654 17.9304 12.6654 18.6667V20.6667C12.6654 22.8759 14.4562 24.6667 16.6654 24.6667L20.6654 24.6667C22.8745 24.6667 24.6654 22.8759 24.6654 20.6667L24.6654 7.33341C24.6654 5.12428 22.8745 3.33341 20.6654 3.33341L16.6654 3.33341C14.4562 3.33341 12.6654 5.12428 12.6654 7.33341V9.33341C12.6654 10.0698 13.2623 10.6667 13.9987 10.6667C14.7351 10.6667 15.332 10.0698 15.332 9.33341V7.33341C15.332 6.59703 15.929 6.00008 16.6654 6.00008L20.6654 6.00008C21.4017 6.00008 21.9987 6.59703 21.9987 7.33341L21.9987 20.6667C21.9987 21.4031 21.4017 22.0001 20.6654 22.0001L16.6654 22.0001Z" fill="white"/>
</svg>
