<svg width="32" height="32" viewBox="0 0 32 32" fill="none" xmlns="http://www.w3.org/2000/svg">
<path d="M15.9995 10.6665C17.414 10.6665 18.7706 11.2284 19.7708 12.2286C20.771 13.2288 21.3329 14.5854 21.3329 15.9998C21.3329 17.4143 20.771 18.7709 19.7708 19.7711C18.7706 20.7713 17.414 21.3332 15.9995 21.3332C14.585 21.3332 13.2285 20.7713 12.2283 19.7711C11.2281 18.7709 10.6662 17.4143 10.6662 15.9998C10.6662 14.5854 11.2281 13.2288 12.2283 12.2286C13.2285 11.2284 14.585 10.6665 15.9995 10.6665ZM15.9995 13.3332C15.2923 13.3332 14.614 13.6141 14.1139 14.1142C13.6138 14.6143 13.3329 15.2926 13.3329 15.9998C13.3329 16.7071 13.6138 17.3854 14.1139 17.8855C14.614 18.3856 15.2923 18.6665 15.9995 18.6665C16.7068 18.6665 17.3851 18.3856 17.8851 17.8855C18.3852 17.3854 18.6662 16.7071 18.6662 15.9998C18.6662 15.2926 18.3852 14.6143 17.8851 14.1142C17.3851 13.6141 16.7068 13.3332 15.9995 13.3332ZM13.3329 29.3332C12.9995 29.3332 12.7195 29.0932 12.6662 28.7732L12.1729 25.2398C11.3329 24.9065 10.6129 24.4532 9.91953 23.9198L6.59953 25.2665C6.3062 25.3732 5.9462 25.2665 5.7862 24.9732L3.11953 20.3598C3.03793 20.2225 3.00916 20.0601 3.0386 19.903C3.06805 19.7459 3.1537 19.605 3.27953 19.5065L6.09286 17.2932L5.99953 15.9998L6.09286 14.6665L3.27953 12.4932C3.1537 12.3947 3.06805 12.2537 3.0386 12.0967C3.00916 11.9396 3.03793 11.7772 3.11953 11.6398L5.7862 7.0265C5.9462 6.73317 6.3062 6.61317 6.59953 6.73317L9.91953 8.0665C10.6129 7.5465 11.3329 7.09317 12.1729 6.75984L12.6662 3.2265C12.7195 2.9065 12.9995 2.6665 13.3329 2.6665H18.6662C18.9995 2.6665 19.2795 2.9065 19.3329 3.2265L19.8262 6.75984C20.6662 7.09317 21.3862 7.5465 22.0795 8.0665L25.3995 6.73317C25.6929 6.61317 26.0529 6.73317 26.2129 7.0265L28.8795 11.6398C29.0529 11.9332 28.9729 12.2932 28.7195 12.4932L25.9062 14.6665L25.9995 15.9998L25.9062 17.3332L28.7195 19.5065C28.9729 19.7065 29.0529 20.0665 28.8795 20.3598L26.2129 24.9732C26.0529 25.2665 25.6929 25.3865 25.3995 25.2665L22.0795 23.9332C21.3862 24.4532 20.6662 24.9065 19.8262 25.2398L19.3329 28.7732C19.2795 29.0932 18.9995 29.3332 18.6662 29.3332H13.3329ZM14.9995 5.33317L14.5062 8.81317C12.9062 9.1465 11.4929 9.99984 10.4662 11.1865L7.25286 9.79984L6.25286 11.5332L9.0662 13.5998C8.53286 15.1554 8.53286 16.8443 9.0662 18.3998L6.23953 20.4798L7.23953 22.2132L10.4795 20.8265C11.5062 21.9998 12.9062 22.8532 14.4929 23.1732L14.9862 26.6665H17.0129L17.5062 23.1865C19.0929 22.8532 20.4929 21.9998 21.5195 20.8265L24.7595 22.2132L25.7595 20.4798L22.9329 18.4132C23.4662 16.8532 23.4662 15.1598 22.9329 13.5998L25.7462 11.5332L24.7462 9.79984L21.5329 11.1865C20.4852 9.9736 19.064 9.1434 17.4929 8.8265L16.9995 5.33317H14.9995Z" fill="white"/>
</svg>
