<svg width="32" height="32" viewBox="0 0 32 32" fill="none" xmlns="http://www.w3.org/2000/svg">
<path d="M25.3333 7.99992H22.6667C22.6667 4.26659 19.7333 1.33325 16 1.33325C12.2667 1.33325 9.33333 4.26659 9.33333 7.99992H6.66667C5.2 7.99992 4 9.19992 4 10.6666V26.6666C4 28.1333 5.2 29.3333 6.66667 29.3333H25.3333C26.8 29.3333 28 28.1333 28 26.6666V10.6666C28 9.19992 26.8 7.99992 25.3333 7.99992ZM16 3.99992C18.2667 3.99992 20 5.73325 20 7.99992H12C12 5.73325 13.7333 3.99992 16 3.99992ZM25.3333 26.6666H6.66667V10.6666H25.3333V26.6666ZM16 15.9999C13.7333 15.9999 12 14.2666 12 11.9999H9.33333C9.33333 15.7333 12.2667 18.6666 16 18.6666C19.7333 18.6666 22.6667 15.7333 22.6667 11.9999H20C20 14.2666 18.2667 15.9999 16 15.9999Z" fill="white"/>
</svg>
