<svg width="32" height="32" viewBox="0 0 32 32" fill="none" xmlns="http://www.w3.org/2000/svg">
<path fill-rule="evenodd" clip-rule="evenodd" d="M10.2239 9.79889L5.66154 15.1223C5.44366 15.3708 5.3322 15.6846 5.33203 16C5.33192 16.2158 5.38392 16.4324 5.48959 16.6294C5.53656 16.7172 5.59393 16.8006 5.66154 16.8777L10.2239 22.2011C10.7031 22.7602 11.5448 22.825 12.104 22.3458C12.6631 21.8666 12.7279 21.0249 12.2487 20.4657L9.56414 17.3334H19.8903C20.6267 17.3334 21.2237 16.7364 21.2237 16.0001C21.2237 15.2637 20.6267 14.6667 19.8903 14.6667L9.56399 14.6667L12.2487 11.5342C12.7279 10.9751 12.6631 10.1334 12.104 9.65417C11.5448 9.17497 10.7031 9.23977 10.2239 9.79889ZM18.6654 24.0001C17.929 24.0001 17.332 23.4031 17.332 22.6667V20.6667C17.332 19.9304 16.7351 19.3334 15.9987 19.3334C15.2623 19.3334 14.6654 19.9304 14.6654 20.6667V22.6667C14.6654 24.8759 16.4562 26.6667 18.6654 26.6667L22.6654 26.6667C24.8745 26.6667 26.6654 24.8759 26.6654 22.6667L26.6654 9.33341C26.6654 7.12428 24.8745 5.33341 22.6654 5.33341L18.6654 5.33341C16.4562 5.33341 14.6654 7.12428 14.6654 9.33341V11.3334C14.6654 12.0698 15.2623 12.6667 15.9987 12.6667C16.7351 12.6667 17.332 12.0698 17.332 11.3334V9.33341C17.332 8.59703 17.929 8.00008 18.6654 8.00008L22.6654 8.00008C23.4017 8.00008 23.9987 8.59703 23.9987 9.33341L23.9987 22.6667C23.9987 23.4031 23.4017 24.0001 22.6654 24.0001L18.6654 24.0001Z" fill="white"/>
</svg>
