<svg width="24" height="29" viewBox="0 0 24 29" fill="none" xmlns="http://www.w3.org/2000/svg">
<path d="M21.3333 6.99992H18.6667C18.6667 3.26659 15.7333 0.333252 12 0.333252C8.26667 0.333252 5.33333 3.26659 5.33333 6.99992H2.66667C1.2 6.99992 0 8.19992 0 9.66659V25.6666C0 27.1333 1.2 28.3333 2.66667 28.3333H21.3333C22.8 28.3333 24 27.1333 24 25.6666V9.66659C24 8.19992 22.8 6.99992 21.3333 6.99992ZM12 2.99992C14.2667 2.99992 16 4.73325 16 6.99992H8C8 4.73325 9.73333 2.99992 12 2.99992ZM21.3333 25.6666H2.66667V9.66659H21.3333V25.6666ZM12 14.9999C9.73333 14.9999 8 13.2666 8 10.9999H5.33333C5.33333 14.7333 8.26667 17.6666 12 17.6666C15.7333 17.6666 18.6667 14.7333 18.6667 10.9999H16C16 13.2666 14.2667 14.9999 12 14.9999Z" fill="white"/>
</svg>
